<svg xmlns="http://www.w3.org/2000/svg" viewBox="0 0 1600 1100" role="img" aria-labelledby="title desc"><title id="title">Portfolio workspace preview</title><desc id="desc">A stylized desk scene with interface panels, project cards, and portfolio marks.</desc><defs><linearGradient id="paper" x1="0" y1="0" x2="1" y2="1"><stop stop-color="#f8faf7"/><stop offset="1" stop-color="#e5edf0"/></linearGradient><filter id="shadow" x="-20%" y="-20%" width="140%" height="150%"><feDropShadow dx="0" dy="24" stdDeviation="28" flood-color="#142025" flood-opacity=".18"/></filter></defs><rect width="1600" height="1100" fill="url(#paper)"/><path d="M127 922c247 72 507 78 780 18 217-48 381-44 566 12" fill="none" stroke="#d3dedc" stroke-width="42" stroke-linecap="round"/><g filter="url(#shadow)"><rect x="160" y="185" width="1280" height="760" rx="36" fill="#f9fbf8"/><rect x="240" y="260" width="700" height="430" rx="26" fill="#20272c"/><rect x="286" y="310" width="608" height="42" rx="12" fill="#39434a"/><rect x="286" y="388" width="470" height="28" rx="10" fill="#5c8d80"/><rect x="286" y="442" width="545" height="28" rx="10" fill="#df8460"/><rect x="286" y="496" width="380" height="28" rx="10" fill="#f0cf6f"/><rect x="286" y="590" width="232" height="46" rx="14" fill="#ecf0ee"/><rect x="1018" y="280" width="266" height="334" rx="30" fill="#5f847c"/><rect x="1060" y="332" width="182" height="86" rx="20" fill="#ecf0ee"/><rect x="1060" y="452" width="120" height="24" rx="8" fill="#f0cf6f"/><rect x="1060" y="500" width="160" height="24" rx="8" fill="#20272c"/><rect x="318" y="742" width="270" height="96" rx="22" fill="#eed5aa"/><rect x="634" y="742" width="270" height="96" rx="22" fill="#d9e7e2"/><rect x="950" y="742" width="270" height="96" rx="22" fill="#efcaba"/><path d="M210 901h1180" fill="none" stroke="#252d32" stroke-width="5" stroke-linecap="round"/><path d="M1096 614l126 130h83" fill="none" stroke="#252d32" stroke-width="9" stroke-linecap="round" stroke-linejoin="round"/></g><text x="1038" y="705" fill="#252d32" font-family="Segoe UI, Arial, sans-serif" font-size="64" font-weight="800">Portfolio</text></svg>